<svg width="1111" height="735" viewBox="0 0 1111 735" fill="none" xmlns="http://www.w3.org/2000/svg">
<path d="M0.185263 367.309L550.434 49.253L550.754 684.811L0.185263 367.309Z" fill="#1E1E1E"/>
<path d="M370.675 236.209V323.367C390.385 321.886 405.367 313.512 415.621 298.245C425.875 282.978 431.002 262.299 431.002 236.209H548.58C548.58 267.996 544.422 294.201 536.104 314.822C527.787 335.444 514.799 352.534 497.14 366.092C532.687 393.208 552.283 436.844 555.929 497H431.344C428.382 434.793 408.159 403.063 370.675 401.81V497H255.318V236.209H370.675Z" fill="white"/>
<path d="M1110.31 367.309L560.063 49.253L559.743 684.811L1110.31 367.309Z" fill="#1E1E1E"/>
<path d="M545.028 497V236.209H657.138L704.306 290.555L751.645 236.209H863.583V497H748.056V366.434L704.306 416.849L660.556 366.434V497H545.028Z" fill="white"/>
</svg>
