<svg width="519" height="132" viewBox="0 0 519 132" fill="none" xmlns="http://www.w3.org/2000/svg">
<rect x="0.105469" y="65.3874" width="114" height="17" rx="8.5" transform="rotate(-26.2041 0.105469 65.3874)" fill="black"/>
<rect x="6.39062" y="58.3442" width="114" height="17" rx="8.5" transform="rotate(22.0808 6.39062 58.3442)" fill="black"/>
<path d="M129.879 98.425C126.379 98.425 123.829 97.3 122.229 95.05C120.629 92.75 119.554 89.2 119.004 84.4C118.854 82 118.729 79.525 118.629 76.975C118.529 74.425 118.454 71.875 118.404 69.325C118.404 66.725 118.429 64.15 118.479 61.6C118.579 59.05 118.654 56.55 118.704 54.1C118.904 49.05 119.254 44 119.754 38.95C120.304 33.9 121.104 28.975 122.154 24.175C123.204 19.375 124.579 14.85 126.279 10.6C127.579 8.04999 129.204 6.19999 131.154 5.04999C133.104 3.85 135.454 3.25 138.204 3.25C140.454 3.25 142.229 3.95 143.529 5.35C144.829 6.75 145.479 8.575 145.479 10.825C145.479 11.975 145.354 13.6 145.104 15.7C144.904 17.75 144.629 20 144.279 22.45C143.979 24.9 143.654 27.325 143.304 29.725C143.004 32.075 142.754 34.2 142.554 36.1C142.354 37.95 142.279 39.275 142.329 40.075C142.479 41.125 142.729 41.9 143.079 42.4C143.429 42.85 144.079 43.075 145.029 43.075C145.829 43.075 146.729 42.825 147.729 42.325C148.729 41.775 149.829 41 151.029 40C153.879 37.7 157.554 34.8 162.054 31.3C166.604 27.75 171.229 24.125 175.929 20.425C179.929 17.275 183.429 14.8 186.429 13C189.479 11.15 192.054 10.225 194.154 10.225C195.854 10.225 197.204 10.55 198.204 11.2C199.204 11.8 199.929 12.625 200.379 13.675C200.879 14.675 201.129 15.75 201.129 16.9C201.129 17.75 200.854 18.7 200.304 19.75C199.804 20.8 199.029 21.925 197.979 23.125C196.979 24.325 195.729 25.6 194.229 26.95C192.779 28.3 191.104 29.7 189.204 31.15C186.554 33.1 183.629 35.175 180.429 37.375C177.229 39.525 174.104 41.575 171.054 43.525C168.004 45.425 165.429 47 163.329 48.25C161.629 49.15 160.404 49.9 159.654 50.5C158.904 51.1 158.529 51.675 158.529 52.225C158.529 52.725 158.729 53.25 159.129 53.8C159.529 54.35 160.229 55.05 161.229 55.9C162.029 56.65 163.254 57.75 164.904 59.2C166.604 60.65 168.479 62.275 170.529 64.075C172.579 65.825 174.579 67.575 176.529 69.325C178.529 71.025 180.279 72.575 181.779 73.975C183.329 75.325 184.429 76.275 185.079 76.825C189.229 80.675 192.179 83.75 193.929 86.05C195.729 88.3 196.629 90.025 196.629 91.225C196.629 92.875 196.279 94.2 195.579 95.2C194.879 96.15 193.904 96.85 192.654 97.3C191.404 97.8 189.954 98.05 188.304 98.05C186.304 98.05 183.879 97.3 181.029 95.8C178.229 94.25 174.679 91.55 170.379 87.7C166.329 83.95 163.004 80.8 160.404 78.25C157.854 75.7 155.754 73.575 154.104 71.875C152.504 70.175 151.129 68.7 149.979 67.45C148.879 66.15 147.729 64.875 146.529 63.625C145.579 62.375 144.804 61.425 144.204 60.775C143.604 60.075 143.079 59.6 142.629 59.35C142.229 59.05 141.829 58.9 141.429 58.9C140.879 58.9 140.479 59.15 140.229 59.65C139.979 60.15 139.854 60.9 139.854 61.9C139.854 62.15 139.829 62.95 139.779 64.3C139.779 65.6 139.754 67.15 139.704 68.95C139.704 70.75 139.654 72.6 139.554 74.5C139.504 76.35 139.454 78.05 139.404 79.6C139.404 81.1 139.379 82.15 139.329 82.75C139.029 88.6 138.154 92.675 136.704 94.975C135.254 97.275 132.979 98.425 129.879 98.425ZM221.864 100.6C219.014 100.6 216.989 99.725 215.789 97.975C214.589 96.275 213.589 93.8 212.789 90.55C212.389 88.5 212.039 86.25 211.739 83.8C211.439 81.35 211.214 78.8 211.064 76.15C210.914 73.45 210.789 70.7 210.689 67.9C210.639 65.05 210.614 62.2 210.614 59.35C210.714 55.75 210.864 52.15 211.064 48.55C211.264 44.95 211.539 41.5 211.889 38.2C212.239 34.85 212.639 31.875 213.089 29.275C213.589 26.625 214.114 24.525 214.664 22.975C215.964 19.275 217.689 16.325 219.839 14.125C221.989 11.925 224.464 10.35 227.264 9.39999C230.064 8.39999 232.989 7.89999 236.039 7.89999C239.539 7.89999 242.564 8.67499 245.114 10.225C247.714 11.775 249.714 14.025 251.114 16.975C251.914 18.625 252.714 20.675 253.514 23.125C254.314 25.575 255.064 28.175 255.764 30.925C256.514 33.675 257.189 36.425 257.789 39.175C258.439 41.875 258.989 44.375 259.439 46.675C259.989 49.525 260.614 52.05 261.314 54.25C262.064 56.4 263.164 57.475 264.614 57.475C266.064 57.475 267.139 56.575 267.839 54.775C268.589 52.975 269.164 50.975 269.564 48.775C269.964 46.225 270.414 43.5 270.914 40.6C271.414 37.7 271.964 34.825 272.564 31.975C273.214 29.075 273.889 26.325 274.589 23.725C275.339 21.125 276.089 18.825 276.839 16.825C278.189 13.975 280.089 11.775 282.539 10.225C285.039 8.67499 288.239 7.89999 292.139 7.89999C295.039 7.89999 297.689 8.42499 300.089 9.475C302.489 10.475 304.639 11.95 306.539 13.9C308.439 15.85 310.039 18.25 311.339 21.1C312.489 23.45 313.464 26.575 314.264 30.475C315.114 34.325 315.764 38.7 316.214 43.6C316.664 48.45 316.939 53.525 317.039 58.825C317.039 61.475 317.039 64.125 317.039 66.775C317.039 69.425 316.989 72.075 316.889 74.725C316.789 77.325 316.639 79.9 316.439 82.45C316.289 84.95 316.039 87.4 315.689 89.8C314.989 92.7 313.864 94.825 312.314 96.175C310.814 97.475 308.639 98.125 305.789 98.125C304.039 98.125 302.639 97.675 301.589 96.775C300.589 95.875 299.939 94.6 299.639 92.95C299.539 91.25 299.439 89.475 299.339 87.625C299.239 85.725 299.114 83.775 298.964 81.775C298.864 79.725 298.764 77.675 298.664 75.625C298.564 73.575 298.464 71.55 298.364 69.55C298.214 65.6 298.014 61.8 297.764 58.15C297.514 54.45 297.214 51.15 296.864 48.25C296.564 45.3 296.189 43.075 295.739 41.575C294.889 38.775 293.914 36.65 292.814 35.2C291.764 33.75 290.189 33.025 288.089 33.025C286.339 33.025 284.789 33.75 283.439 35.2C282.139 36.6 281.164 38.7 280.514 41.5C280.264 42.7 279.964 44.225 279.614 46.075C279.264 47.875 278.889 49.875 278.489 52.075C278.139 54.225 277.764 56.475 277.364 58.825C277.014 61.125 276.664 63.4 276.314 65.65C275.964 67.85 275.639 69.9 275.339 71.8C274.589 75.7 273.339 78.65 271.589 80.65C269.889 82.6 267.489 83.575 264.389 83.575C260.689 83.575 258.039 82.275 256.439 79.675C254.839 77.075 253.389 73.575 252.089 69.175C251.789 67.725 251.414 65.95 250.964 63.85C250.514 61.75 250.039 59.525 249.539 57.175C249.039 54.775 248.539 52.4 248.039 50.05C247.539 47.7 247.064 45.575 246.614 43.675C246.214 41.725 245.839 40.15 245.489 38.95C244.839 36.35 243.939 34.45 242.789 33.25C241.689 32.05 240.364 31.45 238.814 31.45C236.614 31.45 235.014 32.275 234.014 33.925C233.064 35.575 232.289 38.2 231.689 41.8C231.489 43 231.314 44.55 231.164 46.45C231.014 48.35 230.889 50.5 230.789 52.9C230.689 55.25 230.589 57.775 230.489 60.475C230.439 63.175 230.414 65.925 230.414 68.725C230.414 71.625 230.389 74.375 230.339 76.975C230.339 79.575 230.289 82 230.189 84.25C230.089 86.5 229.964 88.5 229.814 90.25C229.714 91.95 229.564 93.35 229.364 94.45C228.814 96.3 227.939 97.775 226.739 98.875C225.589 100.025 223.964 100.6 221.864 100.6Z" fill="black"/>
<rect x="324.029" y="114.553" width="126.289" height="17" rx="8.5" transform="rotate(-57.3113 324.029 114.553)" fill="black"/>
<rect width="114" height="17" rx="8.5" transform="matrix(-0.897227 -0.44157 -0.44157 0.897227 518.466 65.3874)" fill="black"/>
<rect width="114" height="17" rx="8.5" transform="matrix(-0.926655 0.375914 0.375914 0.926655 512.181 58.3442)" fill="black"/>
</svg>
